custom-analysis
version=1
nRows=6
nColumns=98
inDegrees=no

This file contains tibia displacement and acting force.

Units are S.I. units (seconds, meters, Newtons, ...)
Angles are in degrees.

endheader
time	APT	SIT	knee_angle	aACL_R_force	pACL_R_force	aPCL_R_force	pPCL_R_force	aMCL_R_force	mMCL_R_force	pMCL_R_force	aLCL_R_force	mLCL_R_force	pLCL_R_force	aPCL_L_force	pPCL_L_force	aMCL_L_force	aLCL_L_force	aACL_R_length	pACL_R_length	aPCL_R_length	pPCL_R_length	aMCL_R_length	mMCL_R_length	pMCL_R_length	aLCL_R_length	mLCL_R_length	pLCL_R_length	aPCL_L_length	pPCL_L_length	aMCL_L_length	aLCL_L_length	aACL_R_strain	pACL_R_strain	aPCL_R_strain	pPCL_R_strain	aMCL_R_strain	mMCL_R_strain	pMCL_R_strain	aLCL_R_strain	mLCL_R_strain	pLCL_R_strain	aPCL_L_strain	pPCL_L_strain	aMCL_L_strain	aLCL_L_strain	femur_lat_meniscii_r.femur_lat_r.force.X	femur_lat_meniscii_r.femur_lat_r.force.Y	femur_lat_meniscii_r.femur_lat_r.force.Z	femur_lat_meniscii_r.femur_lat_r.torque.X	femur_lat_meniscii_r.femur_lat_r.torque.Y	femur_lat_meniscii_r.femur_lat_r.torque.Z	femur_lat_meniscii_r.meniscus_lat_r.force.X	femur_lat_meniscii_r.meniscus_lat_r.force.Y	femur_lat_meniscii_r.meniscus_lat_r.force.Z	femur_lat_meniscii_r.meniscus_lat_r.torque.X	femur_lat_meniscii_r.meniscus_lat_r.torque.Y	femur_lat_meniscii_r.meniscus_lat_r.torque.Z	femur_med_meniscii_r.femur_med_r.force.X	femur_med_meniscii_r.femur_med_r.force.Y	femur_med_meniscii_r.femur_med_r.force.Z	femur_med_meniscii_r.femur_med_r.torque.X	femur_med_meniscii_r.femur_med_r.torque.Y	femur_med_meniscii_r.femur_med_r.torque.Z	femur_med_meniscii_r.meniscus_med_r.force.X	femur_med_meniscii_r.meniscus_med_r.force.Y	femur_med_meniscii_r.meniscus_med_r.force.Z	femur_med_meniscii_r.meniscus_med_r.torque.X	femur_med_meniscii_r.meniscus_med_r.torque.Y	femur_med_meniscii_r.meniscus_med_r.torque.Z	femur_med_tibia_r.tibia_upper_r.force.X	femur_med_tibia_r.tibia_upper_r.force.Y	femur_med_tibia_r.tibia_upper_r.force.Z	femur_med_tibia_r.tibia_upper_r.torque.X	femur_med_tibia_r.tibia_upper_r.torque.Y	femur_med_tibia_r.tibia_upper_r.torque.Z	femur_med_tibia_r.femur_med_r.force.X	femur_med_tibia_r.femur_med_r.force.Y	femur_med_tibia_r.femur_med_r.force.Z	femur_med_tibia_r.femur_med_r.torque.X	femur_med_tibia_r.femur_med_r.torque.Y	femur_med_tibia_r.femur_med_r.torque.Z	femur_lat_tibia_r.tibia_upper_r.force.X	femur_lat_tibia_r.tibia_upper_r.force.Y	femur_lat_tibia_r.tibia_upper_r.force.Z	femur_lat_tibia_r.tibia_upper_r.torque.X	femur_lat_tibia_r.tibia_upper_r.torque.Y	femur_lat_tibia_r.tibia_upper_r.torque.Z	femur_lat_tibia_r.femur_lat_r.force.X	femur_lat_tibia_r.femur_lat_r.force.Y	femur_lat_tibia_r.femur_lat_r.force.Z	femur_lat_tibia_r.femur_lat_r.torque.X	femur_lat_tibia_r.femur_lat_r.torque.Y	femur_lat_tibia_r.femur_lat_r.torque.Z	femur_lat_meniscii_force_r	femur_med_meniscii_force_r	femur_lat_tibia_force_r	femur_med_tibia_force_r
      0.20950455	      0.01352756	      0.02611526	     81.24875293	      1.24083159	      0.00000000	    962.55792509	    607.78331639	     24.30376629	     10.25194407	      0.00000000	      0.00000000	      0.00000000	      0.00000000	      0.00000000	      0.00000000	      0.00000001	      0.00000000	      0.03103980	      0.02443115	      0.03715664	      0.03394458	      0.06146631	      0.05991430	      0.05656202	      0.05016582	      0.04472861	      0.03972612	      0.01525851	      0.01651186	      0.06550154	      0.04489616	      0.00110635	     -0.02504306	      0.19492796	      0.13573370	      0.02397772	      0.00202034	     -0.03688157	     -0.10381694	     -0.20579329	     -0.24103802	      0.00000079	     -0.32847694	      0.00000060	     -0.00000086	    178.53599896	    106.81783963	      8.50123853	     -5.82708387	      4.13859978	     70.92569458	   -178.53599896	   -106.81783963	     -8.50123853	      2.75273742	     -4.83378853	      2.37422205	      0.04125088	      0.00102306	     -0.02592205	      0.01032119	     -0.00064199	      0.01639878	     -0.04125088	     -0.00102306	      0.02592205	     -0.00009631	      0.00123720	     -0.00010399	   -886.96874962	   -366.79185691	    313.75613306	     -8.27307508	     21.76665633	      2.25624544	    886.96874962	    366.79185691	   -313.75613306	    132.95594969	    -15.57152774	    357.45667879	   -293.47520629	   -131.55328648	    -79.29062698	      4.26804053	    -10.10050775	      0.96248067	    293.47520629	    131.55328648	     79.29062698	    -35.19340717	      7.18741669	    118.33352463	    208.22445785	      0.04873022	    331.24155448	   1009.79836608
      0.20956012	      0.01352558	      0.02612598	     81.27906229	      1.17256924	      0.00000000	    963.00016845	    608.15243739	     24.25908634	     10.23210713	      0.00000000	      0.00000000	      0.00000000	      0.00000000	      0.00000000	      0.00000000	      0.00000001	      0.00000000	      0.03103997	      0.02443282	      0.03715902	      0.03394646	      0.06146787	      0.05991508	      0.05656321	      0.05016283	      0.04472519	      0.03972316	      0.01525851	      0.01651186	      0.06550154	      0.04489616	      0.00111184	     -0.02497674	      0.19500425	      0.13579671	      0.02400375	      0.00203339	     -0.03686136	     -0.10387038	     -0.20585402	     -0.24109448	      0.00000079	     -0.32847694	      0.00000060	     -0.00000086	    178.11919435	    106.45172506	      8.40577794	     -5.78057284	      4.12791086	     70.75921544	   -178.11919435	   -106.45172506	     -8.40577794	      2.74298742	     -4.81974881	      2.36900829	      0.04086905	      0.00104518	     -0.02566699	      0.01021984	     -0.00063590	      0.01624652	     -0.04086905	     -0.00104518	      0.02566699	     -0.00009519	      0.00122527	     -0.00010124	   -887.12906421	   -366.72014922	    314.11266941	     -8.26979332	     21.78066166	      2.26999531	    887.12906421	    366.72014922	   -314.11266941	    133.09719778	    -15.57594391	    357.51623597	   -293.61793524	   -131.31425686	    -79.29824481	      4.26128442	    -10.10507059	      0.95752136	    293.61793524	    131.31425686	     79.29824481	    -35.19097049	      7.19051383	    118.39232602	    207.67540602	      0.04827179	    331.27501804	   1010.02396680
      0.20969076	      0.01352087	      0.02615118	     81.35031525	      0.98295936	      0.00000000	    964.04272801	    609.02762606	     24.14821757	     10.18080198	      0.00000000	      0.00000000	      0.00000000	      0.00000000	      0.00000000	      0.00000000	      0.00000001	      0.00000000	      0.03104033	      0.02443669	      0.03716461	      0.03395091	      0.06147153	      0.05991691	      0.05656600	      0.05015580	      0.04471716	      0.03971625	      0.01525851	      0.01651186	      0.06550154	      0.04489616	      0.00112337	     -0.02482195	      0.19518407	      0.13594548	      0.02406467	      0.00206398	     -0.03681373	     -0.10399589	     -0.20599652	     -0.24122664	      0.00000079	     -0.32847694	      0.00000060	     -0.00000086	    177.68629667	    106.78040688	      8.88690009	     -5.98284713	      4.12190290	     70.57558006	   -177.68629667	   -106.78040688	     -8.88690009	      2.75653376	     -4.82641098	      2.39692193	      0.03992972	      0.00109317	     -0.02502553	      0.00996491	     -0.00062081	      0.01587206	     -0.03992972	     -0.00109317	      0.02502553	     -0.00009243	      0.00119542	     -0.00009483	   -887.25784919	   -365.73507383	    316.82466772	     -8.27154069	     21.88425359	      2.27313908	    887.25784919	    365.73507383	   -316.82466772	    134.17559814	    -15.60548963	    357.56540582	   -293.87752891	   -130.98686743	    -79.54284678	      4.25374705	    -10.12325183	      0.95618882	    293.87752891	    130.98686743	     79.54284678	    -35.28238453	      7.19930867	    118.49663251	    207.49325847	      0.04713655	    331.43419545	   1010.62678831
      0.20970806	      0.01352024	      0.02615451	     81.35974947	      0.29481030	      0.00000000	    965.99694910	    614.15194429	     25.93934112	     12.41941919	      0.00000000	      0.00000000	      0.00000000	      0.00000000	      0.00000000	      0.00000000	      0.00000001	      0.00000000	      0.03104037	      0.02443720	      0.03716535	      0.03395150	      0.06147201	      0.05991715	      0.05656637	      0.05015487	      0.04471610	      0.03971533	      0.01525851	      0.01651186	      0.06550154	      0.04489616	      0.00112474	     -0.02480159	      0.19520792	      0.13596525	      0.02407270	      0.00206802	     -0.03680742	     -0.10401249	     -0.20601537	     -0.24124409	      0.00000079	     -0.32847694	      0.00000060	     -0.00000086	    169.22268169	    107.07754070	     11.11657103	     -6.89252768	      3.94854797	     67.14416043	   -169.22268169	   -107.07754070	    -11.11657103	      2.78765798	     -4.69155286	      2.49927485	      0.03750118	      0.00126983	     -0.02356418	      0.00938542	     -0.00058358	      0.01490457	     -0.03750118	     -0.00126983	      0.02356418	     -0.00008872	      0.00112490	     -0.00008018	   -883.94331255	   -369.91214590	    314.15899780	     -8.27916399	     21.74525503	      2.48293906	    883.94331255	    369.91214590	   -314.15899780	    133.14410116	    -15.53003131	    356.16543236	   -292.57169439	   -132.66490895	    -80.52540669	      4.30725390	    -10.13226806	      1.04487096	    292.57169439	    132.66490895	     80.52540669	    -35.71923860	      7.18480666	    117.93971639	    200.56294242	      0.04430826	    331.18350736	   1008.40797864
      0.20972536	      0.01351937	      0.02615770	     81.36914262	     -1.63614722	      0.00000000	    971.47068705	    628.90037130	     31.20683387	     18.97158386	      0.00000000	      0.00000000	      0.00000000	      0.00000000	      0.00000000	      0.00000000	      0.00000001	      0.00000000	      0.03104033	      0.02443769	      0.03716633	      0.03395234	      0.06147261	      0.05991754	      0.05656691	      0.05015411	      0.04471522	      0.03971462	      0.01525851	      0.01651186	      0.06550154	      0.04489616	      0.00112351	     -0.02478209	      0.19523938	      0.13599337	      0.02408269	      0.00207449	     -0.03679825	     -0.10402617	     -0.20603109	     -0.24125762	      0.00000079	     -0.32847694	      0.00000060	     -0.00000086	    144.63863714	    106.66535061	     16.85043371	     -9.20474082	      3.43580284	     57.19470714	   -144.63863714	   -106.66535061	    -16.85043371	      2.83742357	     -4.27027434	      2.74258004	      0.03045702	      0.00159383	     -0.01929499	      0.00769061	     -0.00047531	      0.01210000	     -0.03045702	     -0.00159383	      0.01929499	     -0.00007671	      0.00091924	     -0.00004485	   -873.51043779	   -381.33125703	    306.18464644	     -8.29468439	     21.32453189	      3.06412221	    873.51043779	    381.33125703	   -306.18464644	    130.04557448	    -15.29823270	    351.78283308	   -288.61400020	   -137.24897818	    -83.23539451	      4.45453603	    -10.14822371	      1.28920592	    288.61400020	    137.24897818	     83.23539451	    -36.92356600	      7.13735344	    116.26001157	    180.50420907	      0.03608971	    330.24756474	   1001.09093005
      0.20975980	      0.01351729	      0.02616384	     81.38778412	     -2.40056072	      0.00000000	    974.08025929	    635.28993847	     33.41674305	     21.71211450	      0.00000000	      0.00000000	      0.00000000	      0.00000000	      0.00000000	      0.00000000	      0.00000001	      0.00000000	      0.03104015	      0.02443864	      0.03716861	      0.03395437	      0.06147397	      0.05991852	      0.05656822	      0.05015281	      0.04471370	      0.03971350	      0.01525851	      0.01651186	      0.06550154	      0.04489616	      0.00111748	     -0.02474433	      0.19531272	      0.13606114	      0.02410534	      0.00209084	     -0.03677598	     -0.10404926	     -0.20605799	     -0.24127903	      0.00000079	     -0.32847694	      0.00000060	     -0.00000086	    134.20626200	    105.84542487	     18.75707170	     -9.95761488	      3.21198166	     52.97982700	   -134.20626200	   -105.84542487	    -18.75707170	      2.83614203	     -4.07107537	      2.82192107	      0.02687695	      0.00163127	     -0.01709306	      0.00681511	     -0.00042000	      0.01067567	     -0.02687695	     -0.00163127	      0.01709306	     -0.00006943	      0.00081357	     -0.00003127	   -867.10963063	   -384.73461669	    302.31063009	     -8.27573555	     21.10458329	      3.28955906	    867.10963063	    384.73461669	   -302.31063009	    128.50970275	    -15.16629938	    349.13170457	   -286.57557762	   -138.63086650	    -84.05455793	      4.49837092	    -10.13352356	      1.37859725	    286.57557762	    138.63086650	     84.05455793	    -37.28730775	      7.10536644	    115.40631958	    171.94883677	      0.03189364	    329.25559607	    995.63625581
